<?xml version="1.0" encoding="utf-8"?> <!-- Generator: IcoMoon.io --> <!DOCTYPE svg PUBLIC "-//W3C//DTD SVG 1.1//EN" "http://www.w3.org/Graphics/SVG/1.1/DTD/svg11.dtd"> <svg width="512" height="512" viewBox="0 0 512 512" xmlns="http://www.w3.org/2000/svg" xmlns:xlink="http://www.w3.org/1999/xlink"><path d="M 480.00,512.00L 32.00,512.00 c -17.664,0.00 -32.00-14.336 -32.00-32.00L 0.00,32.00 c 0.00-17.664, 14.336-32.00, 32.00-32.00l 384.00,0.00 l 96.00,96.00l0.00,384.00 C 512.00,497.664, 497.664,512.00, 480.00,512.00z M 128.00,432.00c0.00,8.848, 7.168,16.00, 16.00,16.00l 224.00,0.00 c 8.848,0.00, 16.00-7.152, 16.00-16.00l 0.00-128.00 c 0.00-8.848 -7.152-16.00 -16.00-16.00L 144.00,288.00 c -8.832,0.00 -16.00,7.152 -16.00,16.00L 128.00,432.00 z M 352.00,80.00c 0.00-8.848 -7.152-16.00 -16.00-16.00s -16.00,7.152 -16.00,16.00l0.00,48.00 c0.00,8.848, 7.152,16.00, 16.00,16.00s 16.00-7.152, 16.00-16.00L 352.00,80.00 z M 448.00,112.00l -48.00-48.00l -16.00,0.00 l0.00,112.00 c0.00,8.848 -7.152,16.00 -16.00,16.00L 144.00,192.00 c -8.832,0.00 -16.00-7.152 -16.00-16.00L 128.00,64.00 L 80.00,64.00 C 71.168,64.00, 64.00,71.152, 64.00,80.00l0.00,352.00 c0.00,8.848, 7.168,16.00, 16.00,16.00l 16.00,0.00 L 96.00,272.00 c 0.00-8.848, 7.168-16.00, 16.00-16.00l 288.00,0.00 c 8.848,0.00, 16.00,7.152, 16.00,16.00l0.00,176.00 l 16.00,0.00 c 8.848,0.00, 16.00-7.152, 16.00-16.00L 448.00,112.00 z" ></path></svg>